# xmcd CD database file
#
# Track frame offsets:
#	150
#	17290
#	42385
#	61162
#	74622
#	93145
#	113677
#	134900
#	149832
#	167115
#	187085
#	210102
#	224932
#	243035
#	265385
#
# Disc length: 3772 seconds
#
# Revision: 2
# Processed by: cddbd v1.4PL0 Copyright (c) Steve Scherf et al.
# Submitted via: CDex 1.50Beta3
#
DISCID=e70eba0f
DTITLE=Various Artist - AOR Heaven/ [CD1]
DYEAR=1900
DGENRE=Pop
TTITLE0=You're Only Lonely
TTITLE1=I've Got My Second Wind
TTITLE2=Georgy Porgy
TTITLE3=Guess Who's Looking For Love
TTITLE4=Dancin' Shoes
TTITLE5=You Oughtta Know By Now
TTITLE6=Home At Last
TTITLE7=Are You Ready For Love
TTITLE8=Sweet Baby
TTITLE9=Two People
TTITLE10=Valentine
TTITLE11=Longer
TTITLE12=Casablanca
TTITLE13=We Both Tried
TTITLE14=I Go Crazy
EXTD=
EXTT0=
EXTT1=
EXTT2=
EXTT3=
EXTT4=
EXTT5=
EXTT6=
EXTT7=
EXTT8=
EXTT9=
EXTT10=
EXTT11=
EXTT12=
EXTT13=
EXTT14=
PLAYORDER=
